<svg xmlns="http://www.w3.org/2000/svg" xmlns:xlink="http://www.w3.org/1999/xlink" viewBox="0 0 300 300"><defs><style>.cls-1{fill:none;}.cls-2{fill:#ff649a;}.cls-3{clip-path:url(#clip-path);}.cls-4{fill:#fcd781;}.cls-5{fill:#d3ab66;}.cls-6{fill:#e2be76;}.cls-7{fill:#f29853;}.cls-8{fill:#ef7c2e;}.cls-9{clip-path:url(#clip-path-2);}.cls-10{fill:#fff;}.cls-11{fill:#e9dada;}.cls-12{fill:#ffad76;}.cls-13{fill:#e54b2c;}.cls-14{fill:#e08a4f;}.cls-15{fill:#574941;}.cls-16{fill:#ffe8bb;}</style><clipPath id="clip-path"><circle class="cls-1" cx="150" cy="150" r="150"/></clipPath><clipPath id="clip-path-2"><path class="cls-1" d="M58,70.05V88.53L71.82,95h59.93V293.75h77.63a76.92,76.92,0,0,0,90.62-24V175.88A77.31,77.31,0,0,0,282,159l1.77,24.79a11.39,11.39,0,0,1-10.52,12.14h0A11.4,11.4,0,0,1,261.61,188l-2.55-31.16-.6-8.43-.09,0-4.46-54.51A110.13,110.13,0,0,0,183.55,0H102.64A77.31,77.31,0,0,0,58,70.05Z"/></clipPath></defs><title>girl</title><g id="Layer_2" data-name="Layer 2"><g id="Layer_1-2" data-name="Layer 1"><g id="_Group_" data-name="&lt;Group&gt;"><circle class="cls-2" cx="150" cy="150" r="150"/></g><g class="cls-3"><path class="cls-4" d="M58,70.05V88.53L71.82,95h59.93V293.75h77.63a76.92,76.92,0,0,0,90.62-24V175.88A77.31,77.31,0,0,0,282,159l1.77,24.79a11.39,11.39,0,0,1-10.52,12.14h0A11.4,11.4,0,0,1,261.61,188l-2.55-31.16-.6-8.43-.09,0-4.46-54.51A110.13,110.13,0,0,0,183.55,0H102.64A77.31,77.31,0,0,0,58,70.05Z"/><path class="cls-5" d="M150.24,291.81V179.89H92.79V273.8a10.27,10.27,0,0,1-20.55,0V253.13A44.27,44.27,0,0,0,59.66,300h84.13a44,44,0,0,0,1.85-8.19Z"/><path class="cls-6" d="M77.49,230.92a10.27,10.27,0,0,1-20.55,0V210.24a44.28,44.28,0,1,0,73.39,38.68h4.6V137H77.49Z"/><path class="cls-7" d="M119.52,200c8,29.7,11.12,70,2.12,100h90.68c-21-56.86-19-101.65-22.19-158.27Z"/><path class="cls-8" d="M190.12,141.73,119.52,200a228.06,228.06,0,0,1,7.55,61.07h0a65.43,65.43,0,0,0,65.38-68.78C191.6,176.14,191.12,159.52,190.12,141.73Z"/><g class="cls-9"><path class="cls-10" d="M66,35.79C41.13,37,45.84,95.7,45.84,95.7l132.65,33.18L205.78,102C172.93,11.7,66,35.79,66,35.79Z"/><path class="cls-11" d="M87.07,33.17a144,144,0,0,0-21,2.62C41.13,37,45.84,95.7,45.84,95.7l132.65,33.18,7.42-7.32L79.31,91.64S76.44,51.41,87.07,33.17Z"/></g><path class="cls-12" d="M116.72,68.17H79.9A21.86,21.86,0,0,0,58,90l4.62,56.12a99.48,99.48,0,0,0,34.7,67.63h0a34.18,34.18,0,0,0,37.24,4.63l32.24-15.87A25.31,25.31,0,0,0,180.63,184l7.44-44.48A71.35,71.35,0,0,0,116.72,68.17Z"/><path class="cls-7" d="M130.84,213.77a99.48,99.48,0,0,1-34.7-67.63l-1.7-15.68c0-12.07-34.86-24.83-34.86-12.76l3.09,28.44a99.48,99.48,0,0,0,34.7,67.63h0a34.18,34.18,0,0,0,37.24,4.63l1.72-.84a34.14,34.14,0,0,1-5.48-3.78Z"/><path class="cls-12" d="M151.24,176.12l-37.61,19.51a14.92,14.92,0,0,0-6.35,20.05h0A14.92,14.92,0,0,0,127.33,222l37.61-19.51a14.87,14.87,0,1,0-13.7-26.4Z"/><path class="cls-12" d="M198.25,100A15.32,15.32,0,0,0,183,115.25v27.27a15.27,15.27,0,1,0,30.54,0V115.25A15.32,15.32,0,0,0,198.25,100Z"/><path class="cls-10" d="M199.12,151.22a2.74,2.74,0,0,0-2.73,2.73v58.72a2.73,2.73,0,1,0,5.47,0V154A2.74,2.74,0,0,0,199.12,151.22Z"/><path class="cls-10" d="M199.12,213.47a7.28,7.28,0,0,0-10.48.19,7.4,7.4,0,0,0,.31,10.23l6.4,6.4a5.34,5.34,0,0,0,7.56,0l6.4-6.4a7.4,7.4,0,0,0,.31-10.23A7.28,7.28,0,0,0,199.12,213.47Z"/><path class="cls-7" d="M198.49,115.33a5.7,5.7,0,0,0-5.68,5.68v15a5.68,5.68,0,0,0,11.36,0V121A5.7,5.7,0,0,0,198.49,115.33Z"/><circle class="cls-12" cx="190.82" cy="129.11" r="6.6"/><path class="cls-4" d="M149.8,106.31l-27.64-3.89a6.29,6.29,0,0,0-1.75,12.46L148,118.77a6.29,6.29,0,0,0,1.75-12.46Z"/><path class="cls-4" d="M79.47,105,61,108.75a6.29,6.29,0,0,0,2.53,12.33L82,117.29A6.29,6.29,0,0,0,79.47,105Z"/><circle class="cls-13" cx="102.34" cy="182.19" r="7.76" transform="translate(-89.13 265.89) rotate(-84.29)"/><circle class="cls-13" cx="107.33" cy="192.28" r="7.76" transform="translate(-94.68 279.94) rotate(-84.29)"/><polygon class="cls-13" points="110.98 199.08 132.73 183.58 105.67 175.18 110.98 199.08"/><path class="cls-12" d="M92.94,165.57a5,5,0,0,0,6.92,5l14.88-6L95.51,125.23Z"/><path class="cls-14" d="M100.34,168.23l-1.21.49a3.05,3.05,0,0,1-4.19-3l2.23-35.05a2,2,0,1,0-4-.25L91,165.44a7,7,0,0,0,9.66,7l1.21-.49a2,2,0,0,0-1.49-3.7Z"/><path class="cls-15" d="M86.52,130.39a32.14,32.14,0,0,0-20.42,0,3.15,3.15,0,0,0-1.79,3.78,2.71,2.71,0,0,0,2.52,2.21,2.3,2.3,0,0,0,.73-.12,27.56,27.56,0,0,1,17.5,0,2.59,2.59,0,0,0,3.25-2.09A3.15,3.15,0,0,0,86.52,130.39Z"/><circle class="cls-15" cx="76.25" cy="136.57" r="6.11"/><path class="cls-15" d="M149.44,128.94a33.43,33.43,0,0,0-28.64-.27,3.21,3.21,0,0,0-1.48,4,2.58,2.58,0,0,0,3.49,1.69,28.67,28.67,0,0,1,24.55.23,2.4,2.4,0,0,0,1,.24,2.7,2.7,0,0,0,2.47-1.86A3.22,3.22,0,0,0,149.44,128.94Z"/><circle class="cls-15" cx="133.18" cy="133.43" r="6.11"/><path class="cls-16" d="M277.71,231.75a3.35,3.35,0,0,0-3.35,3.35,18.53,18.53,0,1,1-37.05,0V186.85a3.35,3.35,0,1,0-6.7,0V235.1a25.22,25.22,0,1,0,50.44,0A3.35,3.35,0,0,0,277.71,231.75Z"/></g></g></g></svg>