<?xml version="1.0" encoding="utf-8"?>
<!-- Generator: Adobe Illustrator 21.0.2, SVG Export Plug-In . SVG Version: 6.00 Build 0)  -->
<svg version="1.1" id="Layer_1" xmlns="http://www.w3.org/2000/svg" xmlns:xlink="http://www.w3.org/1999/xlink" x="0px" y="0px"
	 viewBox="0 0 300 300" style="enable-background:new 0 0 300 300;" xml:space="preserve">
<style type="text/css">
	.st0{fill:#FFCC00;}
	.st1{clip-path:url(#SVGID_2_);}
	.st2{fill:#E2EAFB;}
	.st3{fill:#B6C3EE;}
	.st4{fill:#839ACC;}
	.st5{fill:#FFFFFF;}
	.st6{fill:#EF2966;}
	.st7{fill:#F25F94;}
	.st8{fill:#F6D471;}
	.st9{fill:#AAE04A;}
	.st10{fill:#F8F4B0;}
	.st11{fill:#1D3756;}
</style>
<title>bis</title>
<g>
	<g>
		<g>
			<circle class="st0" cx="150" cy="150" r="150"/>
		</g>
	</g>
	<g>
		<defs>
			<circle id="SVGID_1_" cx="150" cy="150" r="150"/>
		</defs>
		<clipPath id="SVGID_2_">
			<use xlink:href="#SVGID_1_"  style="overflow:visible;"/>
		</clipPath>
		<g id="XMLID_55_" class="st1">
			<path id="XMLID_119_" class="st2" d="M211.2,343.3H20.5v-94.6c0-5.2,4.2-9.4,9.4-9.4h170c6.2,0,11.2,5,11.2,11.2V343.3z"/>
			<path id="XMLID_118_" class="st3" d="M270.3,239.4h-59.1V273c0,21-17,38-38,38H20.5v32.4h190.6h12.3h59.7v-91.1
				C283.1,245.1,277.4,239.4,270.3,239.4z"/>
			<path id="XMLID_117_" class="st2" d="M192.2,239.4H62.4v-71c0-5.2,4.2-9.4,9.4-9.4H181c6.2,0,11.2,5,11.2,11.2V239.4z"/>
			<path id="XMLID_116_" class="st2" d="M174.5,159h-72.2v-49c0-5.2,4.2-9.4,9.4-9.4h51.5c6.2,0,11.2,5,11.2,11.2V159z"/>
			<path id="XMLID_115_" class="st3" d="M201.8,113.5c0-7.1-5.8-12.9-12.9-12.9h-15.7v18.5c0,12.2-9.9,22.1-22.1,22.1h-48.8V159
				h89.9l0,0h9.5V113.5z"/>
			<path id="XMLID_110_" class="st3" d="M228.4,159h-36.2v29.1c0,19.7-16,35.8-35.8,35.8h-94v15.6h129.8h12.2h36.9v-67.5
				C241.3,164.8,235.5,159,228.4,159z"/>
			<g id="XMLID_105_">
				<path id="XMLID_109_" class="st3" d="M283.2,247.8c-1.1-0.3-2.2-0.5-3.4-0.5H23.9c-1.2,0-2.3,0.2-3.4,0.5v25.1
					c4,3.1,6.7,7.4,14.2,7.4c11.7,0,11.7-10.6,23.4-10.6c11.7,0,11.7,10.6,23.4,10.6c11.7,0,11.7-10.6,23.4-10.6
					c11.7,0,11.7,10.6,23.4,10.6c11.7,0,11.7-10.6,23.4-10.6c11.7,0,11.7,10.6,23.4,10.6s11.7-10.6,23.4-10.6
					c11.7,0,11.7,10.6,23.4,10.6c11.7,0,11.7-10.6,23.4-10.6c11.7,0,11.7,10.6,23.5,10.6c7.4,0,10.1-4.2,14-7.3V247.8z"/>
				<path id="XMLID_108_" class="st4" d="M279.7,247.3H211v28.2c2.8,2.5,5.7,4.8,11.2,4.8c11.7,0,11.7-10.6,23.4-10.6
					c11.7,0,11.7,10.6,23.5,10.6c7.4,0,10.1-4.2,14-7.3v-25.2C282.1,247.5,280.9,247.3,279.7,247.3z"/>
				<path id="XMLID_107_" class="st5" d="M23.9,237.2c-6.9,0-12.5,5.5-12.5,12.4v0.1v9.7v0.2c11.5,0.1,11.6,10.6,23.3,10.6
					c11.7,0,11.7-10.6,23.4-10.6c11.7,0,11.7,10.6,23.4,10.6c11.7,0,11.7-10.6,23.4-10.6c11.7,0,11.7,10.6,23.4,10.6
					c11.7,0,11.7-10.6,23.4-10.6c11.7,0,11.7,10.6,23.4,10.6c11.7,0,11.7-10.6,23.4-10.6c11.7,0,11.7,10.6,23.4,10.6
					c11.7,0,11.7-10.6,23.4-10.6c11.7,0,11.7,10.6,23.5,10.6c11.6,0,11.7-10.4,23.2-10.6v-0.2v-9.8l0,0c0-6.8-5.6-12.4-12.5-12.4
					H23.9z"/>
				<path id="XMLID_106_" class="st2" d="M279.7,237.2H211v28.2c2.8,2.5,5.7,4.8,11.2,4.8c11.7,0,11.7-10.6,23.4-10.6
					c11.7,0,11.7,10.6,23.5,10.6c11.6,0,11.7-10.4,23.2-10.6v-10C292.3,242.8,286.6,237.2,279.7,237.2z"/>
			</g>
			<g id="XMLID_100_">
				<path id="XMLID_104_" class="st3" d="M241.3,162.4c-0.7-0.2-1.5-0.3-2.3-0.3H64.7c-0.8,0-1.6,0.1-2.3,0.3v17.1
					c2.7,2.1,4.6,5,9.7,5c8,0,8-7.2,16-7.2c8,0,8,7.2,16,7.2c8,0,8-7.2,16-7.2c8,0,8,7.2,16,7.2c8,0,8-7.2,16-7.2c8,0,8,7.2,16,7.2
					s8-7.2,16-7.2c8,0,8,7.2,16,7.2c8,0,8-7.2,16-7.2c8,0,8,7.2,16,7.2c5,0,6.9-2.8,9.6-5V162.4z"/>
				<path id="XMLID_103_" class="st4" d="M239,162.1h-46.8v19.2c1.9,1.7,3.9,3.3,7.6,3.3c8,0,8-7.2,16-7.2c8,0,8,7.2,16,7.2
					c5,0,6.9-2.8,9.6-5v-17.2C240.6,162.2,239.8,162.1,239,162.1z"/>
				<path id="XMLID_102_" class="st5" d="M64.7,155.2c-4.7,0-8.6,3.8-8.6,8.4v0.1v6.6v0.1c7.9,0.1,7.9,7.2,15.9,7.2
					c8,0,8-7.2,16-7.2c8,0,8,7.2,16,7.2c8,0,8-7.2,16-7.2c8,0,8,7.2,16,7.2c8,0,8-7.2,16-7.2c8,0,8,7.2,16,7.2c8,0,8-7.2,16-7.2
					c8,0,8,7.2,16,7.2c8,0,8-7.2,16-7.2c8,0,8,7.2,16,7.2c7.9,0,8-7.1,15.8-7.2v-0.1v-6.7l0,0c0-4.7-3.8-8.4-8.6-8.4H64.7z"/>
				<path id="XMLID_101_" class="st2" d="M239,155.2h-46.8v19.2c1.9,1.7,3.9,3.3,7.6,3.3c8,0,8-7.2,16-7.2c8,0,8,7.2,16,7.2
					c7.9,0,8-7.1,15.8-7.2v-6.8C247.6,159,243.7,155.2,239,155.2z"/>
			</g>
			<g id="XMLID_95_">
				<path id="XMLID_99_" class="st3" d="M201.8,99.9c-0.4-0.1-0.9-0.2-1.3-0.2h-96.9c-0.5,0-0.9,0.1-1.3,0.2v11.7
					c1.5,1.4,2.5,3.4,5.4,3.4c4.4,0,4.4-4.9,8.9-4.9c4.4,0,4.4,4.9,8.9,4.9c4.4,0,4.4-4.9,8.9-4.9c4.4,0,4.4,4.9,8.9,4.9
					c4.4,0,4.4-4.9,8.9-4.9c4.4,0,4.4,4.9,8.9,4.9c4.4,0,4.4-4.9,8.9-4.9c4.4,0,4.4,4.9,8.9,4.9c4.4,0,4.4-4.9,8.9-4.9
					c4.4,0,4.4,4.9,8.9,4.9c2.8,0,3.8-1.9,5.3-3.4V99.9z"/>
				<path id="XMLID_98_" class="st4" d="M200.5,99.6h-26v13.1c1,1.1,2.2,2.2,4.2,2.2c4.4,0,4.4-4.9,8.9-4.9c4.4,0,4.4,4.9,8.9,4.9
					c2.8,0,3.8-1.9,5.3-3.4V99.9C201.4,99.7,201,99.6,200.5,99.6z"/>
				<path id="XMLID_97_" class="st5" d="M103.6,94.9c-2.6,0-4.8,2.6-4.8,5.8v0v4.5v0.1c4.4,0,4.4,4.9,8.8,4.9c4.4,0,4.4-4.9,8.9-4.9
					c4.4,0,4.4,4.9,8.9,4.9c4.4,0,4.4-4.9,8.9-4.9c4.4,0,4.4,4.9,8.9,4.9c4.4,0,4.4-4.9,8.9-4.9c4.4,0,4.4,4.9,8.9,4.9
					s4.4-4.9,8.9-4.9c4.4,0,4.4,4.9,8.9,4.9c4.4,0,4.4-4.9,8.9-4.9c4.4,0,4.4,4.9,8.9,4.9c4.4,0,4.4-4.8,8.8-4.9v-0.1v-4.6v0
					c0-3.2-2.1-5.8-4.8-5.8H103.6z"/>
				<path id="XMLID_96_" class="st2" d="M200.5,94.9h-26V108c1,1.1,2.2,2.2,4.2,2.2c4.4,0,4.4-4.9,8.9-4.9c4.4,0,4.4,4.9,8.9,4.9
					c4.4,0,4.4-4.8,8.8-4.9v-4.7C205.3,97.5,203.2,94.9,200.5,94.9z"/>
			</g>
			<g id="XMLID_92_">
				<path id="XMLID_94_" class="st6" d="M72.8,292.8l2.1,4.2c0.4,0.8,1.2,1.4,2.1,1.5l4.6,0.7c2.3,0.3,3.2,3.1,1.5,4.8l-3.3,3.3
					c-0.7,0.6-1,1.6-0.8,2.5l0.8,4.6c0.4,2.3-2,4-4,2.9l-4.1-2.2c-0.8-0.4-1.8-0.4-2.6,0l-4.1,2.2c-2,1.1-4.4-0.7-4-2.9l0.8-4.6
					c0.2-0.9-0.1-1.8-0.8-2.5l-3.3-3.3c-1.7-1.6-0.7-4.4,1.5-4.8l4.6-0.7c0.9-0.1,1.7-0.7,2.1-1.5l2.1-4.2
					C68.8,290.7,71.8,290.7,72.8,292.8z"/>
				<path id="XMLID_93_" class="st7" d="M70.5,297.5l1.2,2.5c0.2,0.5,0.7,0.8,1.3,0.9l2.8,0.4c1.4,0.2,1.9,1.9,0.9,2.8l-2,2
					c-0.4,0.4-0.6,0.9-0.5,1.5l0.5,2.8c0.2,1.4-1.2,2.4-2.4,1.8l-2.5-1.3c-0.5-0.3-1.1-0.3-1.6,0l-2.5,1.3c-1.2,0.6-2.7-0.4-2.4-1.8
					l0.5-2.8c0.1-0.5-0.1-1.1-0.5-1.5l-2-2c-1-1-0.4-2.6,0.9-2.8l2.8-0.4c0.5-0.1,1-0.4,1.3-0.9l1.2-2.5
					C68.1,296.2,69.9,296.2,70.5,297.5z"/>
			</g>
			<g id="XMLID_89_">
				<path id="XMLID_91_" class="st6" d="M174.7,194.7l2.1,4.2c0.4,0.8,1.2,1.4,2.1,1.5l4.6,0.7c2.3,0.3,3.2,3.1,1.5,4.8l-3.3,3.3
					c-0.7,0.6-1,1.6-0.8,2.5l0.8,4.6c0.4,2.3-2,4-4,2.9l-4.1-2.2c-0.8-0.4-1.8-0.4-2.6,0l-4.1,2.2c-2,1.1-4.4-0.7-4-2.9l0.8-4.6
					c0.2-0.9-0.1-1.8-0.8-2.5l-3.3-3.3c-1.7-1.6-0.7-4.4,1.5-4.8l4.6-0.7c0.9-0.1,1.7-0.7,2.1-1.5l2.1-4.2
					C170.8,192.6,173.7,192.6,174.7,194.7z"/>
				<path id="XMLID_90_" class="st7" d="M172.4,199.3l1.2,2.5c0.2,0.5,0.7,0.8,1.3,0.9l2.8,0.4c1.4,0.2,1.9,1.9,0.9,2.8l-2,2
					c-0.4,0.4-0.6,0.9-0.5,1.5l0.5,2.8c0.2,1.4-1.2,2.4-2.4,1.8l-2.5-1.3c-0.5-0.3-1.1-0.3-1.6,0l-2.5,1.3c-1.2,0.6-2.7-0.4-2.4-1.8
					l0.5-2.8c0.1-0.5-0.1-1.1-0.5-1.5l-2-2c-1-1-0.4-2.6,0.9-2.8l2.8-0.4c0.5-0.1,1-0.4,1.3-0.9l1.2-2.5
					C170,198.1,171.8,198.1,172.4,199.3z"/>
			</g>
			<g id="XMLID_86_">
				<path id="XMLID_88_" class="st6" d="M129.8,121.6l2.1,4.2c0.4,0.8,1.2,1.4,2.1,1.5l4.6,0.7c2.3,0.3,3.2,3.1,1.5,4.8l-3.3,3.3
					c-0.7,0.6-1,1.6-0.8,2.5l0.8,4.6c0.4,2.3-2,4-4,2.9l-4.1-2.2c-0.8-0.4-1.8-0.4-2.6,0l-4.1,2.2c-2,1.1-4.4-0.7-4-2.9l0.8-4.6
					c0.2-0.9-0.1-1.8-0.8-2.5l-3.3-3.3c-1.7-1.6-0.7-4.4,1.5-4.8l4.6-0.7c0.9-0.1,1.7-0.7,2.1-1.5l2.1-4.2
					C125.8,119.6,128.8,119.6,129.8,121.6z"/>
				<path id="XMLID_87_" class="st7" d="M127.5,126.3l1.2,2.5c0.2,0.5,0.7,0.8,1.3,0.9l2.8,0.4c1.4,0.2,1.9,1.9,0.9,2.8l-2,2
					c-0.4,0.4-0.6,0.9-0.5,1.5l0.5,2.8c0.2,1.4-1.2,2.4-2.4,1.8l-2.5-1.3c-0.5-0.3-1.1-0.3-1.6,0l-2.5,1.3c-1.2,0.6-2.7-0.4-2.4-1.8
					l0.5-2.8c0.1-0.5-0.1-1.1-0.5-1.5l-2-2c-1-1-0.4-2.6,0.9-2.8l2.8-0.4c0.5-0.1,1-0.4,1.3-0.9l1.2-2.5
					C125.1,125.1,126.9,125.1,127.5,126.3z"/>
			</g>
			<circle id="XMLID_85_" class="st8" cx="84.7" cy="196.5" r="5.9"/>
			<circle id="XMLID_84_" class="st8" cx="169.3" cy="316.7" r="5.9"/>
			<circle id="XMLID_83_" class="st8" cx="108.1" cy="294.3" r="2.9"/>
			<circle id="XMLID_82_" class="st9" cx="127.3" cy="317.5" r="2.9"/>
			<circle id="XMLID_81_" class="st9" cx="133.5" cy="193.8" r="2.3"/>
			<circle id="XMLID_80_" class="st9" cx="165.7" cy="125.4" r="2.3"/>
			<circle id="XMLID_79_" class="st9" cx="199.5" cy="280.2" r="2.3"/>
			<circle id="XMLID_78_" class="st9" cx="256" cy="308.8" r="4"/>
			<circle id="XMLID_77_" class="st9" cx="204.3" cy="207.3" r="3"/>
			<circle id="XMLID_76_" class="st9" cx="34.6" cy="324.9" r="2.3"/>
			<circle id="XMLID_75_" class="st10" cx="113.6" cy="206.3" r="4.8"/>
			<circle id="XMLID_74_" class="st10" cx="188.2" cy="138.8" r="2.4"/>
			<circle id="XMLID_73_" class="st10" cx="229" cy="190.3" r="1.3"/>
			<circle id="XMLID_72_" class="st10" cx="230.3" cy="288.8" r="1.3"/>
			<g id="XMLID_69_">
				<path id="XMLID_71_" class="st2" d="M309,358.9H-9c-3.1,0-5.7-2.6-5.7-5.7V349c0-3.1,2.5-5.7,5.7-5.7h318c3.1,0,5.7,2.5,5.7,5.7
					v4.2C314.7,356.3,312.1,358.9,309,358.9z"/>
				<path id="XMLID_70_" class="st5" d="M221.6,358.9H-9c-3.1,0-5.7-2.5-5.7-5.7V349c0-3.1,2.5-5.7,5.7-5.7h230.7
					c3.1,0,5.7,2.6,5.7,5.7v4.2C227.3,356.3,224.7,358.9,221.6,358.9z"/>
			</g>
			<g id="XMLID_66_">
				<path id="XMLID_68_" class="st2" d="M211.1,446.4H88.9c-3.1,0-5.7-2.5-5.7-5.7v-4.2c0-3.1,2.5-5.7,5.7-5.7h122.2
					c3.1,0,5.7,2.6,5.7,5.7v4.2C216.8,443.9,214.2,446.4,211.1,446.4z"/>
				<path id="XMLID_67_" class="st5" d="M175.7,446.4H88.9c-3.1,0-5.7-2.6-5.7-5.7v-4.2c0-3.1,2.5-5.7,5.7-5.7h86.8
					c3.1,0,5.7,2.5,5.7,5.7v4.2C181.3,443.9,178.8,446.4,175.7,446.4z"/>
			</g>
			<path id="XMLID_65_" class="st3" d="M195,358.9h-37.3h-1.5h-37.3c0,0,47.4,22.8,18.4,72.1h18.9h1.5h18.9
				C147.5,381.7,195,358.9,195,358.9z"/>
			<path id="XMLID_64_" class="st4" d="M177.4,373.1c1-1.2,2-2.3,3-3.3c0,0,0,0,0.1-0.1c0.5-0.5,1-1,1.5-1.4c0,0,0.1-0.1,0.1-0.1
				c0.5-0.5,1-0.9,1.5-1.3c0,0,0,0,0.1-0.1c1.5-1.3,3-2.5,4.3-3.5c0,0,0,0,0,0c0.4-0.3,0.9-0.6,1.3-0.9c0,0,0,0,0.1,0
				c0.4-0.3,0.8-0.5,1.2-0.8c0,0,0,0,0,0c1.2-0.8,2.1-1.4,2.9-1.8c0,0,0,0,0,0c0.2-0.1,0.5-0.3,0.6-0.4c0,0,0,0,0.1,0
				c0.2-0.1,0.3-0.2,0.5-0.2c0,0,0,0,0,0c0.1-0.1,0.2-0.1,0.3-0.1c0,0,0,0,0,0c0.1,0,0.1,0,0.1,0h-38h-38.2c0,0,9.6,4.6,17.6,14.3h0
				c11.4,0,20.7,9.2,20.7,20.7v37.2h19.5C160.6,403.9,167.7,384.8,177.4,373.1L177.4,373.1z"/>
			<g id="XMLID_56_">
				<g id="XMLID_61_">
					<rect id="XMLID_63_" x="148.6" y="50.9" class="st10" width="7.7" height="44.1"/>
					
						<rect id="XMLID_62_" x="156.3" y="50.9" transform="matrix(-1 -1.224647e-16 1.224647e-16 -1 317.0381 145.8138)" class="st8" width="4.5" height="44.1"/>
				</g>
				<path id="XMLID_60_" class="st8" d="M158.3,41c0.6,0.4,1.3,0.2,1.6-0.5c0.6-1.5,1-3.5,1-6c0-5-3-10.2-4.8-12.9
					c-0.6-1-2.1-1-2.7,0c-1.8,2.7-4.8,7.9-4.8,12.9c0,2.6,0.4,4.6,1,6c0.3,0.6,1,0.9,1.6,0.5C153.5,39.3,155.9,39.3,158.3,41z"/>
				<path id="XMLID_59_" class="st5" d="M157.8,41.2c0.5,0.4,1.2,0.2,1.5-0.4c0.5-1.3,0.9-3.1,0.9-5.4c0-4.7-2.9-9.6-4.5-11.9
					c-0.5-0.7-1.4-0.7-1.9,0c-1.6,2.3-4.5,7.1-4.5,11.9c0,2.3,0.3,4.1,0.9,5.4c0.2,0.6,1,0.7,1.5,0.4
					C153.6,39.8,155.7,39.8,157.8,41.2z"/>
				<path id="XMLID_58_" class="st11" d="M155.8,50.9v-7.2c0-0.6-0.5-1.1-1.1-1.1c-0.6,0-1.1,0.5-1.1,1.1v7.2H155.8z"/>
				<rect id="XMLID_57_" x="153.6" y="47.3" class="st8" width="2.1" height="3.5"/>
			</g>
		</g>
	</g>
	<g id="XMLID_48_">
		<circle id="XMLID_54_" class="st9" cx="249.2" cy="110.6" r="7.4"/>
		<circle id="XMLID_53_" class="st9" cx="79.6" cy="117.5" r="6.2"/>
		<circle id="XMLID_52_" class="st10" cx="209.2" cy="64.6" r="6.4"/>
		<circle id="XMLID_51_" class="st10" cx="28.4" cy="137" r="5.1"/>
		<circle id="XMLID_50_" class="st10" cx="265.7" cy="158.8" r="5.1"/>
		<circle id="XMLID_49_" class="st10" cx="86.5" cy="58.2" r="6.4"/>
	</g>
</g>
</svg>
